<svg width="56" height="56" viewBox="0 0 56 56" fill="none" xmlns="http://www.w3.org/2000/svg">
<rect x="3.98438" y="23.511" width="28.817" height="28.817" rx="6" transform="rotate(-7.83553 3.98438 23.511)" fill="#ACE4A2"/>
<circle cx="35.0272" cy="21.1443" r="16.1443" fill="#DBF9D7" stroke="white" stroke-width="2"/>
<path d="M34.5748 11.8421C34.7535 11.4546 35.3041 11.4546 35.4828 11.8421L37.8138 16.8956C37.8866 17.0535 38.0363 17.1622 38.209 17.1827L43.7355 17.838C44.1592 17.8882 44.3293 18.4119 44.0161 18.7016L39.9302 22.4801C39.8025 22.5982 39.7454 22.7741 39.7792 22.9446L40.8638 28.4032C40.947 28.8216 40.5015 29.1453 40.1292 28.9369L35.273 26.2186C35.1213 26.1337 34.9363 26.1337 34.7846 26.2186L29.9284 28.9369C29.5561 29.1453 29.1106 28.8216 29.1937 28.4032L30.2783 22.9446C30.3122 22.7741 30.2551 22.5982 30.1274 22.4801L26.0415 18.7016C25.7283 18.4119 25.8984 17.8882 26.3221 17.838L31.8486 17.1827C32.0213 17.1622 32.171 17.0535 32.2438 16.8956L34.5748 11.8421Z" fill="#53D633"/>
</svg>
